<?xml version="1.0" encoding="UTF-8" standalone="no"?>
<svg
   xmlns:dc="http://purl.org/dc/elements/1.1/"
   xmlns:cc="http://creativecommons.org/ns#"
   xmlns:rdf="http://www.w3.org/1999/02/22-rdf-syntax-ns#"
   xmlns:svg="http://www.w3.org/2000/svg"
   xmlns="http://www.w3.org/2000/svg"
   xmlns:xlink="http://www.w3.org/1999/xlink"
   enable-background="new"
   id="svg8"
   version="1.1"
   viewBox="0 0 270.93333 270.93334"
   height="1024"
   width="1024">
  <defs
     id="defs2">
    <clipPath
       id="SVGID_2_">
      <use
         id="use10"
         style="overflow:visible"
         xlink:href="#SVGID_1_"
         x="0"
         y="0"
         width="100%"
         height="100%" />
    </clipPath>
    <circle
       r="150"
       cy="175"
       cx="175"
       class="st1"
       id="SVGID_1_" />
    <circle
       id="SVGID_1_-7"
       class="st1"
       cx="175"
       cy="175"
       r="150" />
    <clipPath
       id="clipPath909"
       clipPathUnits="userSpaceOnUse">
      <path
         id="path911"
         d="M 133.86734,26.436154 66.906618,65.095948 80.809035,89.175251 53.578039,136.3402 H 25.773192 v 77.3196 h 27.804847 l 27.230235,47.16419 -13.902418,24.08006 66.961484,38.65979 13.90243,-24.07932 h 54.46122 l 13.90242,24.07932 66.96074,-38.65979 -13.90243,-24.08006 27.23024,-47.16419 h 27.80485 v -77.3196 h -27.80485 l -27.231,-47.164949 13.90243,-24.079303 -66.96073,-38.659794 -13.90242,24.079314 h -54.46047 z"
         style="opacity:1;fill:#0000ff;fill-opacity:1;stroke:none;stroke-width:0;stroke-linejoin:round;stroke-miterlimit:4;stroke-dasharray:none;stroke-opacity:1;paint-order:stroke markers fill" />
    </clipPath>
    <clipPath
       id="clipPath913"
       clipPathUnits="userSpaceOnUse">
      <path
         id="path915"
         d="M 135.59491,32.675838 71.446542,69.71192 84.765057,92.779891 58.677764,137.96391 H 32.040721 v 74.07217 h 26.637043 l 26.086564,45.1833 -13.318516,23.0687 64.149098,37.03608 13.31853,-23.06799 h 52.17384 l 13.31853,23.06799 64.14838,-37.03608 -13.31853,-23.0687 26.08658,-45.1833 h 26.63704 V 137.96391 H 291.32224 L 265.23493,92.779891 278.55346,69.71192 214.40508,32.675838 201.08657,55.743821 h -52.17313 z"
         style="opacity:1;fill:#0000ff;fill-opacity:1;stroke:none;stroke-width:0;stroke-linejoin:round;stroke-miterlimit:4;stroke-dasharray:none;stroke-opacity:1;paint-order:stroke markers fill" />
    </clipPath>
    <filter
       height="1.0171841"
       y="-0.0085920728"
       width="1.0164327"
       x="-0.0082163269"
       id="filter960"
       style="color-interpolation-filters:sRGB">
      <feGaussianBlur
         id="feGaussianBlur962"
         stdDeviation="0.76811308" />
    </filter>
  </defs>
  <metadata
     id="metadata5">
    <rdf:RDF>
      <cc:Work
         rdf:about="">
        <dc:format>image/svg+xml</dc:format>
        <dc:type
           rdf:resource="http://purl.org/dc/dcmitype/StillImage" />
        <dc:title></dc:title>
      </cc:Work>
    </rdf:RDF>
  </metadata>
  <g
     style="display:inline"
     id="layer1">
    <g
       clip-path="url(#clipPath913)"
       style="fill:#688dff;fill-opacity:1"
       transform="matrix(0.71439343,0,0,0.71439343,10.447817,10.447817)"
       id="Cookie">
      <circle
         id="circle1283"
         r="143.7"
         cy="175"
         cx="175"
         class="st0"
         style="fill:#688dff;fill-opacity:1" />
    </g>
    <g
       clip-path="url(#clipPath909)"
       style="opacity:0.7"
       transform="matrix(0.68438889,0,0,0.68438889,15.698611,15.698611)"
       id="Triangles">
      <g
         id="g1424"
         class="st1"
         style="opacity:0.15">
        <defs
           id="defs1287" />
        <clipPath
           id="SVGID_2_-0">
          <use
             id="use1289"
             style="overflow:visible"
             xlink:href="#SVGID_1_-7"
             x="0"
             y="0"
             width="100%"
             height="100%" />
        </clipPath>
        <g
           style=""
           id="g1422"
           clip-path="url(#SVGID_2_)"
           class="st2">
          <polygon
             id="polygon1292"
             points="431.2,336.9 -81.2,336.9 175,-106.9 "
             class="st3"
             style="fill:#f1f1f2" />
          <polygon
             id="polygon1294"
             points="581.2,443.7 68.8,443.7 325,0 "
             class="st4"
             style="fill:#231f20" />
          <polygon
             id="polygon1296"
             points="102.6,363.4 -409.8,363.4 -153.6,-80.3 "
             class="st5"
             style="fill:#808184" />
          <polygon
             id="polygon1298"
             points="573.8,158.2 61.4,158.2 317.6,-285.6 "
             class="st6"
             style="fill:#929497" />
          <polygon
             id="polygon1300"
             points="290,380 -222.4,380 33.8,-63.7 "
             class="st7"
             style="fill:#636466" />
          <polygon
             id="polygon1302"
             points="412.3,646.9 -100.1,646.9 156.1,203.1 "
             class="st8"
             style="fill:#59595c" />
          <polygon
             id="polygon1304"
             points="29.7,147.2 -164.9,147.2 -67.6,-21.3 "
             class="st9"
             style="fill:#a7a8ab" />
          <polygon
             id="polygon1306"
             points="111.2,523.8 -83.4,523.8 13.9,355.3 "
             class="st9"
             style="fill:#a7a8ab" />
          <polygon
             id="polygon1308"
             points="328.9,220.8 134.3,220.8 231.6,52.3 "
             class="st10"
             style="fill:#6d6e70" />
          <polygon
             id="polygon1310"
             points="493.2,485.7 298.7,485.7 396,317.2 "
             class="st9"
             style="fill:#a7a8ab" />
          <polygon
             id="polygon1312"
             points="205.7,621.4 108.4,621.4 157,537.2 "
             class="st8"
             style="fill:#59595c" />
          <polygon
             id="polygon1314"
             points="375.9,305.9 278.7,305.9 327.3,221.7 "
             class="st11"
             style="fill:#221f1f" />
          <polygon
             id="polygon1316"
             points="240.8,400 46.2,400 143.5,231.5 "
             class="st11"
             style="fill:#221f1f" />
          <polygon
             id="polygon1318"
             points="158.8,-86.6 108.8,-86.6 36.5,38.6 231.1,38.6 "
             class="st5"
             style="fill:#808184" />
          <polygon
             id="polygon1320"
             points="372,-86.6 322,-86.6 298.4,-45.7 395.7,-45.7 "
             class="st5"
             style="fill:#808184" />
          <polygon
             id="polygon1322"
             points="229.9,332.5 35.3,332.5 132.6,164 "
             class="st12"
             style="fill:#404041" />
          <polygon
             id="polygon1324"
             points="430.6,369.2 236.1,369.2 333.3,200.7 "
             class="st5"
             style="fill:#808184" />
          <polygon
             id="polygon1326"
             points="44.3,428.8 -51.9,428.8 -3.8,345.5 "
             class="st8"
             style="fill:#59595c" />
          <polygon
             id="polygon1328"
             points="219.4,104.8 123.2,104.8 171.3,21.5 "
             class="st13"
             style="fill:#58595b" />
          <polygon
             id="polygon1330"
             points="379.2,90.2 283,90.2 331.1,6.9 "
             class="st11"
             style="fill:#221f1f" />
          <polygon
             id="polygon1332"
             points="-13.8,331.6 -61.9,331.6 -37.8,289.9 "
             class="st5"
             style="fill:#808184" />
          <polygon
             id="polygon1334"
             points="180.6,621.6 132.5,621.6 156.5,579.9 "
             class="st8"
             style="fill:#59595c" />
          <polygon
             id="polygon1336"
             points="264.7,465.6 216.7,465.6 240.7,423.9 "
             class="st8"
             style="fill:#59595c" />
          <polygon
             id="polygon1338"
             points="293.3,259.7 197.1,259.7 245.2,176.4 "
             class="st12"
             style="fill:#404041" />
          <polygon
             id="polygon1340"
             points="379.2,239.3 283,239.3 331.1,156 "
             class="st3"
             style="fill:#f1f1f2" />
          <polygon
             id="polygon1342"
             points="46.7,78.8 -49.5,78.8 -1.4,-4.5 "
             class="st9"
             style="fill:#a7a8ab" />
          <polygon
             id="polygon1344"
             points="-1.7,225.4 -97.9,225.4 -49.8,142.1 "
             class="st9"
             style="fill:#a7a8ab" />
          <polygon
             id="polygon1346"
             points="336.3,-20 288.2,-20 312.2,-61.6 "
             class="st5"
             style="fill:#808184" />
          <polygon
             id="polygon1348"
             points="235.3,116.2 187.2,116.2 211.3,74.6 "
             class="st14"
             style="fill:#bbbdbf" />
          <polygon
             id="polygon1350"
             points="244.7,63.8 231.9,63.8 238.3,52.8 "
             class="st15"
             style="fill:#ffffff" />
          <polygon
             id="polygon1352"
             points="125.1,117.8 28.9,117.8 77,34.5 "
             class="st10"
             style="fill:#6d6e70" />
          <polygon
             id="polygon1354"
             points="207,331.9 110.8,331.9 158.9,248.6 "
             class="st16"
             style="fill:#a6a8ab" />
          <polygon
             id="polygon1356"
             points="143.1,263.1 107,263.1 125.1,231.7 "
             class="st4"
             style="fill:#231f20" />
          <polygon
             id="polygon1358"
             points="262.1,285.3 214,285.3 238,243.6 "
             class="st9"
             style="fill:#a7a8ab" />
          <polygon
             id="polygon1360"
             points="256.7,167.2 208.6,167.2 232.6,125.6 "
             class="st9"
             style="fill:#a7a8ab" />
          <polygon
             id="polygon1362"
             points="322.1,102.8 226,102.8 274.1,19.5 "
             class="st3"
             style="fill:#f1f1f2" />
          <polygon
             id="polygon1364"
             points="97.4,143.6 1.2,143.6 49.3,60.3 "
             class="st16"
             style="fill:#a6a8ab" />
          <polygon
             id="polygon1366"
             points="50.6,272.2 14,272.2 32.3,240.4 "
             class="st8"
             style="fill:#59595c" />
          <polygon
             id="polygon1368"
             points="302,230.6 265.4,230.6 283.7,198.8 "
             class="st16"
             style="fill:#a6a8ab" />
          <polygon
             id="polygon1370"
             points="193.3,84.8 156.7,84.8 175,53.1 "
             class="st15"
             style="fill:#ffffff" />
          <polygon
             id="polygon1372"
             points="193.3,282.1 156.7,282.1 175,250.3 "
             class="st13"
             style="fill:#58595b" />
          <polygon
             id="polygon1374"
             points="17,88 -19.7,88 -1.4,56.2 "
             class="st8"
             style="fill:#59595c" />
          <polygon
             id="polygon1376"
             points="275,360.2 238.4,360.2 256.7,328.5 "
             class="st8"
             style="fill:#59595c" />
          <polygon
             id="polygon1378"
             points="344.1,135.6 307.5,135.6 325.8,103.8 "
             class="st5"
             style="fill:#808184" />
          <polygon
             id="polygon1380"
             points="82,233.1 45.3,233.1 63.6,201.3 "
             class="st14"
             style="fill:#bbbdbf" />
          <polygon
             id="polygon1382"
             points="109,295.1 72.3,295.1 90.6,263.3 "
             class="st3"
             style="fill:#f1f1f2" />
          <polygon
             id="polygon1384"
             points="64.3,167.7 27.6,167.7 46,136 "
             class="st3"
             style="fill:#f1f1f2" />
          <polygon
             id="polygon1386"
             points="132,123.7 113.7,123.7 122.8,107.9 "
             class="st8"
             style="fill:#59595c" />
          <polygon
             id="polygon1388"
             points="69.1,152.9 50.8,152.9 59.9,137.1 "
             class="st14"
             style="fill:#bbbdbf" />
          <polygon
             id="polygon1390"
             points="126.1,84.4 107.7,84.4 116.9,68.5 "
             class="st17"
             style="fill:#e6e7e8" />
          <polygon
             id="polygon1392"
             points="105.6,360.2 69,360.2 87.3,328.5 "
             class="st11"
             style="fill:#221f1f" />
          <polygon
             id="polygon1394"
             points="148.8,419.2 112.2,419.2 130.5,387.4 "
             class="st8"
             style="fill:#59595c" />
          <polygon
             id="polygon1396"
             points="553.4,288.1 516.7,288.1 535.1,256.3 "
             class="st8"
             style="fill:#59595c" />
          <polygon
             id="polygon1398"
             points="224.4,61.9 187.7,61.9 206,30.1 "
             class="st5"
             style="fill:#808184" />
          <polygon
             id="polygon1400"
             points="320,128.2 283.4,128.2 301.7,96.5 "
             class="st15"
             style="fill:#ffffff" />
          <polygon
             id="polygon1402"
             points="335,622.1 316.6,622.1 325.8,606.2 "
             class="st8"
             style="fill:#59595c" />
          <polygon
             id="polygon1404"
             points="280.7,411.2 262.4,411.2 271.6,395.4 "
             class="st9"
             style="fill:#a7a8ab" />
          <polygon
             id="polygon1406"
             points="595.9,394.4 577.5,394.4 586.7,378.5 "
             class="st8"
             style="fill:#59595c" />
          <polygon
             id="polygon1408"
             points="-60.7,339.9 -97.4,339.9 -79.1,308.2 "
             class="st5"
             style="fill:#808184" />
          <polygon
             id="polygon1410"
             points="314.4,315.5 277.7,315.5 296.1,283.7 "
             class="st5"
             style="fill:#808184" />
          <polygon
             id="polygon1412"
             points="305.2,268.6 286.9,268.6 296.1,252.7 "
             class="st9"
             style="fill:#a7a8ab" />
          <polygon
             id="polygon1414"
             points="231.9,128.5 210.1,128.5 221,109.6 "
             class="st18"
             style="fill:#d0d2d3" />
          <polygon
             id="polygon1416"
             points="113.2,-41.1 94.9,-41.1 104,-57 "
             class="st5"
             style="fill:#808184" />
          <polygon
             id="polygon1418"
             points="423.4,121.9 386.7,121.9 405,90.2 "
             class="st8"
             style="fill:#59595c" />
          <polygon
             id="polygon1420"
             points="481.4,336.8 463,336.8 472.2,320.9 "
             class="st8"
             style="fill:#59595c" />
        </g>
      </g>
    </g>
  </g>
  <g
     style="display:inline"
     id="g852"
     transform="translate(0,-26.06665)">
    <path
       id="path1740-0"
       d="m 166.89421,54.714922 a 10.584392,10.584392 0 0 0 -6.76342,2.335776 c -4.79886,3.860001 -8.10041,7.600331 -10.4066,10.825694 -4.61248,-0.705779 -9.26827,-1.112279 -13.94178,-1.134814 a 10.584392,10.584392 0 0 0 -0.1049,0 c -4.6718,0.02365 -9.32596,0.430999 -13.93662,1.137399 -2.29362,-3.208179 -5.57178,-6.92509 -10.32857,-10.763168 A 10.584392,10.584392 0 0 0 101.53695,55.27406 C 86.292102,60.159888 72.268963,68.252421 60.410785,79.006979 a 10.584392,10.584392 0 0 0 -3.346566,9.474876 c 0.947946,6.060951 2.535271,10.770735 4.172873,14.367085 -5.84046,7.33609 -10.561802,15.48745 -14.018785,24.20421 -3.94091,0.38487 -8.823148,1.37245 -14.555184,3.59306 a 10.584392,10.584392 0 0 0 -6.514848,7.60315 c -1.707123,7.78975 -2.578945,15.73924 -2.600358,23.7138 a 10.584392,10.584392 0 0 0 0,0.0894 c 0.04621,7.98782 0.94559,15.94799 2.682524,23.74481 a 10.584392,10.584392 0 0 0 6.520531,7.57266 c 5.701393,2.19969 10.558688,3.18006 14.483356,3.56206 3.443158,8.72735 8.153094,16.89085 13.984677,24.24038 -1.630325,3.58963 -3.209597,8.28542 -4.15427,14.32109 a 10.584392,10.584392 0 0 0 3.33158,9.46247 c 11.829648,10.76985 25.826408,18.88522 41.050205,23.80113 a 10.584392,10.584392 0 0 0 9.88518,-1.82469 c 4.79885,-3.86 8.10041,-7.60033 10.4066,-10.8257 4.61249,0.70578 9.26828,1.11229 13.94179,1.13482 a 10.584392,10.584392 0 0 0 0.1049,0 c 4.6718,-0.0237 9.32596,-0.431 13.93662,-1.1374 2.29362,3.20817 5.57178,6.9251 10.32857,10.76317 a 10.584392,10.584392 0 0 0 9.87536,1.84174 c 15.24485,-4.88583 29.268,-12.97836 41.12618,-23.73291 a 10.584392,10.584392 0 0 0 3.34656,-9.47488 c -0.94795,-6.06094 -2.53524,-10.7707 -4.17287,-14.36708 5.84046,-7.33609 10.5618,-15.48745 14.01878,-24.20421 3.94091,-0.38487 8.82316,-1.37245 14.55519,-3.59306 a 10.584392,10.584392 0 0 0 6.51485,-7.60315 c 1.70711,-7.78974 2.57893,-15.73924 2.60035,-23.7138 a 10.584392,10.584392 0 0 0 0,-0.0894 c -0.0462,-7.98782 -0.94558,-15.94799 -2.68252,-23.74481 a 10.584392,10.584392 0 0 0 -6.52053,-7.57266 c -5.70139,-2.19969 -10.55869,-3.18006 -14.48336,-3.56206 -3.44316,-8.72735 -8.15309,-16.89085 -13.98467,-24.24038 1.63031,-3.589611 3.20959,-8.285425 4.15427,-14.321092 a 10.584392,10.584392 0 0 0 -3.33158,-9.462476 C 199.23654,68.257286 185.23978,60.14191 170.01598,55.226001 a 10.584392,10.584392 0 0 0 -3.12177,-0.511079 z m -0.13023,10.582301 a 101.6,101.6 0 0 1 37.17758,21.555791 c -0.94532,6.039771 -2.58051,10.281994 -3.99408,13.024012 -0.15034,0.288724 -0.29714,0.559904 -0.43976,0.813394 -0.99841,1.7744 -1.78802,2.70283 -2.08876,3.02772 l -0.17674,0.16743 a 84.666665,84.666665 0 0 1 19.55023,33.89406 l 0.24908,-0.0744 c 0.4934,-0.11196 1.98872,-0.38241 4.59042,-0.26923 3.08023,0.14674 7.56993,0.8518 13.26999,3.05098 a 101.6,101.6 0 0 1 2.42931,21.50463 101.6,101.6 0 0 1 -2.35489,21.47672 c -5.73585,2.22209 -10.25063,2.93148 -13.34441,3.07888 -0.32521,0.0142 -0.63314,0.0229 -0.92397,0.0258 -2.03589,0.0226 -3.23473,-0.19707 -3.66645,-0.29507 l -0.22117,-0.0656 a 84.666665,84.666665 0 0 1 -19.61689,33.8491 l 0.21549,0.2036 c 0.34366,0.37132 1.32569,1.53137 2.52852,3.84111 1.41409,2.74295 3.04944,6.98761 3.99459,13.03073 a 101.6,101.6 0 0 1 -37.2463,21.49377 c -4.7564,-3.83776 -7.61249,-7.37418 -9.28006,-9.9689 -0.17486,-0.27457 -0.33599,-0.53729 -0.48421,-0.78755 -1.03747,-1.75185 -1.44669,-2.89991 -1.57768,-3.32279 l -0.0677,-0.28423 a 84.666665,84.666665 0 0 1 -19.55488,2.39107 84.666665,84.666665 0 0 1 -19.55591,-2.38641 l -0.0667,0.27957 c -0.14975,0.48328 -0.66302,1.91378 -2.06189,4.11034 -1.6756,2.60726 -4.55043,6.165 -9.34827,10.02419 A 101.6,101.6 0 0 1 67.520946,237.13015 c 0.945317,-6.03977 2.5805,-10.28199 3.994071,-13.02401 0.150349,-0.28872 0.297143,-0.55989 0.439766,-0.81339 0.998406,-1.7744 1.788031,-2.70283 2.088762,-3.02772 l 0.176733,-0.16743 A 84.666665,84.666665 0 0 1 54.670049,186.20355 l -0.249079,0.0744 c -0.493403,0.11196 -1.988711,0.38241 -4.590418,0.26923 -3.080227,-0.14674 -7.569931,-0.85179 -13.269992,-3.05097 a 101.6,101.6 0 0 1 -2.429309,-21.50463 101.6,101.6 0 0 1 2.354895,-21.47673 c 5.735852,-2.22209 10.250625,-2.93147 13.344406,-3.07888 0.325216,-0.0141 0.633146,-0.0229 0.923973,-0.0259 2.035887,-0.0226 3.234722,0.19707 3.666445,0.29507 l 0.221173,0.0656 a 84.666665,84.666665 0 0 1 19.616891,-33.84901 l -0.215489,-0.2036 c -0.343662,-0.37132 -1.325693,-1.53138 -2.528528,-3.841115 -1.414076,-2.742959 -3.049432,-6.987606 -3.994589,-13.030729 a 101.6,101.6 0 0 1 37.246302,-21.49377 c 4.7564,3.837757 7.61248,7.374173 9.28005,9.968899 0.17487,0.274569 0.336,0.537292 0.48421,0.787551 1.03748,1.751846 1.44669,2.89991 1.57768,3.322794 l 0.0677,0.28422 a 84.666665,84.666665 0 0 1 19.55488,-2.391068 84.666665,84.666665 0 0 1 19.55591,2.386417 l 0.0667,-0.279569 c 0.14974,-0.483278 0.66302,-1.91379 2.06189,-4.110345 1.6756,-2.607257 4.55043,-6.165003 9.34827,-10.024192 z m 17.23461,61.947647 c -2.0019,0 -4.03032,0.1583 -6.0849,0.47439 l 0.79065,38.64157 c 1.79117,0.31609 3.58214,0.47439 5.37331,0.47439 1.68581,0 3.45092,-0.1583 5.29477,-0.47439 l 0.79013,-38.64157 c -2.05457,-0.31609 -4.10938,-0.47439 -6.16396,-0.47439 z m -26.14156,4.50463 -14.77688,18.88619 0.39481,1.58026 h 5.13664 v 18.49138 c 0,5.05742 1.26434,8.71853 3.79305,10.98383 2.52871,2.21262 6.18981,3.31918 10.98383,3.31918 2.58139,0 5.0842,-0.2897 7.50755,-0.8692 0.0527,-0.36877 0.0786,-0.73762 0.0785,-1.10639 0.0527,-0.42146 0.0791,-0.92171 0.0791,-1.5012 0,-0.84291 -0.0786,-1.79116 -0.23668,-2.84479 -0.15804,-1.10631 -0.42188,-2.1601 -0.79065,-3.16105 -0.57949,0.10536 -1.26391,0.23676 -2.05413,0.39481 -0.73755,0.10536 -1.50163,0.15813 -2.29185,0.15813 -1.00095,0 -1.87006,-0.10502 -2.6076,-0.31574 -0.73754,-0.21073 -1.36971,-0.60597 -1.89652,-1.18546 -0.47414,-0.5795 -0.84299,-1.36997 -1.10639,-2.37092 -0.26341,-1.00095 -0.39533,-2.31753 -0.39533,-3.95066 v -16.04192 h 9.56169 c 0.15805,-0.8429 0.26358,-1.60647 0.31626,-2.29133 0.0527,-0.68486 0.0791,-1.39618 0.0791,-2.13372 0,-0.68486 -0.0264,-1.34341 -0.0791,-1.97559 -0.0527,-0.63218 -0.15821,-1.3435 -0.31626,-2.13372 h -9.56169 V 131.7495 Z m -58.073972,10.98383 c -1.475081,0 -2.818569,0.21107 -4.030244,0.63252 -1.158992,0.36877 -2.212264,0.86902 -3.16053,1.5012 -0.948267,0.63218 -1.765121,1.3435 -2.449981,2.13372 -0.684858,0.79022 -1.237877,1.58017 -1.659329,2.3704 -0.05268,-0.36877 -0.131832,-0.81626 -0.237197,-1.34307 -0.05268,-0.52682 -0.131315,-1.05397 -0.236677,-1.58078 -0.105363,-0.5795 -0.237279,-1.10614 -0.395325,-1.58027 -0.105362,-0.52682 -0.237281,-0.92205 -0.395324,-1.18546 -0.73754,-0.15804 -1.448343,-0.26306 -2.133204,-0.31574 -0.684858,-0.10536 -1.47533,-0.15813 -2.370915,-0.15813 -0.895585,0 -1.71192,0.0528 -2.449462,0.15813 -0.73754,0.0527 -1.475243,0.1577 -2.212785,0.31574 v 40.85436 c 1.896534,0.31609 3.766659,0.47439 5.610511,0.47439 1.843852,0 3.713977,-0.1583 5.610511,-0.47439 v -21.41472 c 0,-2.21262 0.211066,-4.00359 0.632518,-5.37331 0.421452,-1.36972 0.974471,-2.42351 1.659332,-3.16105 0.737539,-0.79022 1.553877,-1.31737 2.449462,-1.58078 0.895586,-0.26341 1.791073,-0.39481 2.686659,-0.39481 2.159939,0 3.582572,0.76357 4.267432,2.29133 0.73754,1.52777 1.10639,3.71449 1.10639,6.55929 v 23.07405 c 1.89654,0.31609 3.76666,0.47439 5.61051,0.47439 1.84386,0 3.71398,-0.1583 5.61052,-0.47439 v -22.04672 c 0,-2.05458 0.21055,-3.71415 0.632,-4.97851 0.47413,-1.31703 1.05405,-2.31805 1.73891,-3.00292 0.73754,-0.73753 1.52749,-1.2383 2.3704,-1.50171 0.89558,-0.26341 1.79107,-0.39481 2.68666,-0.39481 2.15994,0 3.58258,0.76357 4.26744,2.29133 0.73754,1.52777 1.10639,3.71449 1.10639,6.55929 v 23.07405 c 1.89653,0.31609 3.76666,0.47439 5.61051,0.47439 1.84385,0 3.71398,-0.1583 5.61051,-0.47439 v -25.9979 c 0,-5.42619 -1.10655,-9.40389 -3.31918,-11.9326 -2.15994,-2.5814 -5.55772,-3.87212 -10.19369,-3.87212 -2.95017,0 -5.39969,0.7377 -7.34891,2.21278 -1.89653,1.4224 -3.37194,3.10836 -4.42557,5.05758 -1.79117,-4.8467 -5.87389,-7.27036 -12.248342,-7.27036 z m 84.215532,29.7124 c -1.89654,0 -3.81943,0.1583 -5.76864,0.47439 -0.31609,2.00189 -0.47388,3.95117 -0.47388,5.8477 0,1.89654 0.15779,3.81891 0.47388,5.76813 1.94921,0.31609 3.89849,0.47439 5.8477,0.47439 1.84385,0 3.76675,-0.1583 5.76864,-0.47439 0.31609,-1.94922 0.47439,-3.89798 0.47439,-5.84719 0,-1.84385 -0.1583,-3.76675 -0.47439,-5.76864 -2.00189,-0.31609 -3.95117,-0.47439 -5.8477,-0.47439 z"
       style="font-style:normal;font-variant:normal;font-weight:normal;font-stretch:normal;font-size:79.02222443px;line-height:1.25;font-family:Aller;-inkscape-font-specification:Aller;letter-spacing:0px;word-spacing:0px;display:inline;fill:#000000;fill-opacity:0.49803922;stroke:none;stroke-width:0.26458332;filter:url(#filter960)" />
  </g>
  <g
     transform="translate(0,-26.06665)"
     id="g1742"
     style="display:inline">
    <path
       id="path1740"
       d="m 629.78125,106.54492 a 40.004,40.004 0 0 0 -25.5625,8.82813 c -18.13742,14.58898 -30.61572,28.72566 -39.33203,40.91601 -17.433,-2.66751 -35.0297,-4.20389 -52.69336,-4.28906 a 40.004,40.004 0 0 0 -0.39648,0 c -17.6572,0.0894 -35.24772,1.62897 -52.67383,4.29883 -8.6688,-12.1254 -21.05869,-26.17357 -39.03711,-40.67969 a 40.004,40.004 0 0 0 -37.32422,-6.96094 c -57.61835,18.46612 -110.61919,49.05207 -155.4375,89.69922 a 40.004,40.004 0 0 0 -12.64844,35.81055 c 3.58279,22.90753 9.58213,40.70829 15.77149,54.30078 -22.07418,27.72695 -39.91862,58.53523 -52.98438,91.48047 -14.89478,1.45463 -33.34733,5.18722 -55.01172,13.58008 A 40.004,40.004 0 0 0 97.828125,422.26562 C 91.376007,451.70716 88.080931,481.75251 88,511.89258 a 40.004,40.004 0 0 0 0,0.33789 c 0.174652,30.19018 3.573882,60.27584 10.138672,89.74414 A 40.004,40.004 0 0 0 122.7832,630.5957 c 21.54857,8.31379 39.90685,12.01911 54.74024,13.46289 13.01351,32.98526 30.81484,63.83944 52.85547,91.61719 -6.16186,13.56711 -12.13076,31.31497 -15.70118,54.12695 a 40.004,40.004 0 0 0 12.5918,35.76368 c 44.71048,40.70494 97.61162,71.37721 155.15039,89.95703 a 40.004,40.004 0 0 0 37.36133,-6.89649 c 18.13739,-14.58897 30.61572,-28.72564 39.33203,-40.91601 17.433,2.66751 35.0297,4.20391 52.69336,4.28906 a 40.004,40.004 0 0 0 0.39648,0 c 17.6572,-0.0896 35.24772,-1.62897 52.67383,-4.29883 8.6688,12.12537 21.05869,26.1736 39.03711,40.67969 a 40.004,40.004 0 0 0 37.32422,6.96094 c 57.61833,-18.46613 110.61918,-49.05207 155.4375,-89.69922 a 40.004,40.004 0 0 0 12.64844,-35.81055 c -3.5828,-22.90749 -9.58202,-40.70816 -15.77149,-54.30078 22.07418,-27.72695 39.91863,-58.53523 52.98438,-91.48047 14.89478,-1.45463 33.34735,-5.18722 55.01172,-13.58008 a 40.004,40.004 0 0 0 24.62305,-28.73632 c 6.45209,-29.44154 9.74716,-59.48689 9.82812,-89.62696 a 40.004,40.004 0 0 0 0,-0.33789 c -0.17461,-30.19018 -3.57386,-60.27584 -10.13867,-89.74414 A 40.004,40.004 0 0 0 901.2168,393.4043 c -21.54856,-8.31379 -39.90684,-12.01911 -54.74024,-13.46289 -13.01352,-32.98526 -30.81485,-63.83944 -52.85547,-91.61719 6.16181,-13.56702 12.13073,-31.31498 15.70118,-54.12695 a 40.004,40.004 0 0 0 -12.5918,-35.76368 C 752.01998,157.72866 699.11885,127.05637 641.58008,108.47656 a 40.004,40.004 0 0 0 -11.79883,-1.93164 z m -0.49219,39.9961 a 383.99999,383.99999 0 0 1 140.51367,81.4707 c -3.57285,22.82748 -9.7531,38.86108 -15.0957,49.22461 -0.56825,1.09123 -1.12307,2.11616 -1.66211,3.07422 -3.77352,6.70641 -6.75787,10.21545 -7.89453,11.44336 l -0.66797,0.63281 a 319.99999,319.99999 0 0 1 73.89063,128.10351 l 0.9414,-0.28125 c 1.86482,-0.42315 7.51642,-1.44534 17.34961,-1.01757 11.64182,0.55462 28.61077,3.21939 50.1543,11.53125 A 383.99999,383.99999 0 0 1 896,512 a 383.99999,383.99999 0 0 1 -8.90039,81.17188 c -21.6788,8.39843 -38.74251,11.07958 -50.43555,11.63671 -1.22914,0.0537 -2.39298,0.0864 -3.49218,0.0977 -7.69467,0.0853 -12.22573,-0.74484 -13.85743,-1.11523 l -0.83593,-0.24805 A 319.99999,319.99999 0 0 1 744.33594,731.4766 l 0.81445,0.76953 c 1.29887,1.40342 5.01051,5.78786 9.55664,14.51758 5.34457,10.36705 11.52542,26.40987 15.09766,49.25 A 383.99999,383.99999 0 0 1 629.03125,877.25 c -17.97694,-14.50492 -28.77159,-27.8709 -35.07422,-37.67773 -0.66092,-1.03775 -1.26991,-2.0307 -1.83008,-2.97657 -3.92118,-6.62116 -5.46781,-10.96027 -5.96289,-12.55859 l -0.25586,-1.07422 A 319.99999,319.99999 0 0 1 512,832 319.99999,319.99999 0 0 1 438.08789,822.98047 l -0.25195,1.05664 c -0.56595,1.82657 -2.5059,7.2332 -7.79297,15.53516 -6.33297,9.8542 -17.19846,23.30079 -35.33203,37.88671 a 383.99999,383.99999 0 0 1 -140.51367,-81.4707 c 3.57285,-22.82749 9.75307,-38.86108 15.0957,-49.22461 0.56825,-1.09122 1.12306,-2.11614 1.66211,-3.07422 3.7735,-6.70639 6.75791,-10.21543 7.89453,-11.44336 l 0.66797,-0.63281 A 319.99999,319.99999 0 0 1 205.62695,603.50977 l -0.9414,0.28125 c -1.86483,0.42315 -7.51639,1.44534 -17.34961,1.01757 -11.6418,-0.55462 -28.61076,-3.21939 -50.1543,-11.53125 A 383.99999,383.99999 0 0 1 128,512 a 383.99999,383.99999 0 0 1 8.90039,-81.17188 c 21.67881,-8.39843 38.74252,-11.07958 50.43555,-11.63671 1.22916,-0.0533 2.39299,-0.0864 3.49218,-0.0977 7.69469,-0.0853 12.22572,0.74484 13.85743,1.11523 l 0.83593,0.24805 A 319.99999,319.99999 0 0 1 279.66406,292.5234 l -0.81445,-0.76953 c -1.29888,-1.40342 -5.01049,-5.78788 -9.55664,-14.51758 -5.34454,-10.36709 -11.52541,-26.40985 -15.09766,-49.25 A 383.99999,383.99999 0 0 1 394.96875,146.75 c 17.97694,14.50491 28.77159,27.87089 35.07422,37.67773 0.66092,1.03774 1.26991,2.03071 1.83008,2.97657 3.92118,6.62115 5.46781,10.96029 5.96289,12.55859 l 0.25586,1.07422 A 319.99999,319.99999 0 0 1 512,192 a 319.99999,319.99999 0 0 1 73.91211,9.01953 l 0.25195,-1.05664 c 0.56595,-1.82656 2.5059,-7.23322 7.79297,-15.53516 6.33297,-9.8542 17.19846,-23.3008 35.33203,-37.88671 z m 65.13867,234.13281 c -7.56622,0 -15.23271,0.5983 -22.99804,1.79297 l 2.98828,146.04687 c 6.76978,1.19467 13.53881,1.79297 20.30859,1.79297 6.37156,0 13.04283,-0.5983 20.01172,-1.79297 l 2.98633,-146.04687 c -7.76533,-1.19467 -15.53154,-1.79297 -23.29688,-1.79297 z m -98.80273,17.02539 -55.84961,71.38086 1.49219,5.97265 h 19.41406 v 69.88868 c 0,19.11466 4.7786,32.95189 14.33594,41.51367 9.55733,8.36267 23.39456,12.54492 41.51367,12.54492 9.75644,0 19.21589,-1.09493 28.375,-3.28516 0.19911,-1.39377 0.29688,-2.78786 0.29687,-4.18164 0.19912,-1.59289 0.29883,-3.4836 0.29883,-5.67382 0,-3.18578 -0.29719,-6.76974 -0.89453,-10.75196 -0.59733,-4.18133 -1.5945,-8.16415 -2.98828,-11.94726 -2.19022,0.39822 -4.777,0.89485 -7.76367,1.49218 -2.78756,0.39823 -5.67544,0.59766 -8.66211,0.59766 -3.78311,0 -7.06791,-0.39691 -9.85547,-1.19336 -2.78756,-0.79644 -5.17686,-2.29025 -7.16797,-4.48047 -1.792,-2.19022 -3.18608,-5.17782 -4.18164,-8.96094 -0.99555,-3.78311 -1.49414,-8.75919 -1.49414,-14.93164 v -60.63086 h 36.13867 c 0.59734,-3.18577 0.9962,-6.07171 1.19531,-8.66015 0.19912,-2.58845 0.29883,-5.2769 0.29883,-8.06446 0,-2.58844 -0.0997,-5.07746 -0.29883,-7.46679 -0.19911,-2.38934 -0.59797,-5.07779 -1.19531,-8.06445 h -36.13867 v -45.09766 z m -219.49219,41.51367 c -5.57511,0 -10.65286,0.79774 -15.23242,2.39063 -4.38044,1.39377 -8.36131,3.28449 -11.94531,5.67382 -3.584,2.38934 -6.67132,5.07779 -9.25977,8.06446 -2.58844,2.98666 -4.67859,5.97231 -6.27148,8.95898 -0.19911,-1.39378 -0.49826,-3.08506 -0.89649,-5.07617 -0.19911,-1.99111 -0.49631,-3.9835 -0.89453,-5.97461 -0.39822,-2.19022 -0.8968,-4.18066 -1.49414,-5.97266 -0.39822,-1.99111 -0.89681,-3.48491 -1.49414,-4.48046 -2.78755,-0.59734 -5.47405,-0.99425 -8.0625,-1.19336 -2.58844,-0.39823 -5.57605,-0.59766 -8.96094,-0.59766 -3.38489,0 -6.47025,0.19943 -9.25781,0.59766 -2.78755,0.19911 -5.57572,0.59602 -8.36328,1.19336 V 597.20703 C 301.168,598.4017 308.23619,599 315.20508,599 c 6.96889,0 14.03708,-0.5983 21.20508,-1.79297 v -80.9375 c 0,-8.36267 0.79773,-15.1317 2.39062,-20.30859 1.59289,-5.17689 3.68304,-9.15971 6.27149,-11.94727 2.78755,-2.98666 5.87292,-4.97905 9.25781,-5.97461 3.38489,-0.99555 6.76941,-1.49218 10.1543,-1.49218 8.16355,-10e-6 13.54046,2.88593 16.1289,8.66015 2.78756,5.77422 4.18164,14.03902 4.18164,24.79102 v 87.20898 C 391.96292,598.4017 399.03111,599 406,599 c 6.96889,0 14.03708,-0.5983 21.20508,-1.79297 v -83.32617 c 0,-7.76533 0.79578,-14.03774 2.38867,-18.81641 1.792,-4.97777 3.98382,-8.76116 6.57227,-11.34961 2.78755,-2.78755 5.7732,-4.68022 8.95898,-5.67578 3.38489,-0.99555 6.76941,-1.49218 10.1543,-1.49218 8.16355,-10e-6 13.54046,2.88593 16.1289,8.66015 2.78756,5.77422 4.18164,14.03902 4.18164,24.79102 v 87.20898 C 482.75784,598.4017 489.82603,599 496.79492,599 503.76381,599 510.832,598.4017 518,597.20703 v -98.25976 c 0,-20.50845 -4.18225,-35.54228 -12.54492,-45.09961 -8.16356,-9.75645 -21.00557,-14.63477 -38.52735,-14.63477 -11.15022,0 -20.40827,2.78817 -27.77539,8.36328 -7.168,5.376 -12.74434,11.74812 -16.72656,19.11524 -6.76978,-18.31823 -22.20052,-27.47852 -46.29297,-27.47852 z m 318.29492,112.29883 c -7.168,0 -14.43562,0.5983 -21.80273,1.79297 -1.19467,7.56622 -1.79102,14.93356 -1.79102,22.10156 0,7.168 0.59635,14.43367 1.79102,21.80078 7.36711,1.19467 14.73445,1.79297 22.10156,1.79297 6.96889,0 14.23651,-0.5983 21.80274,-1.79297 1.19466,-7.36711 1.79297,-14.7325 1.79297,-22.09961 0,-6.96889 -0.59831,-14.23651 -1.79297,-21.80273 -7.56623,-1.19467 -14.93357,-1.79297 -22.10157,-1.79297 z"
       style="font-style:normal;font-variant:normal;font-weight:normal;font-stretch:normal;font-size:79.02222443px;line-height:1.25;font-family:Aller;-inkscape-font-specification:Aller;letter-spacing:0px;word-spacing:0px;fill:#ffffff;fill-opacity:1;stroke:none;stroke-width:0.99999994"
       transform="matrix(0.26458333,0,0,0.26458333,0,26.06665)" />
  </g>
  <style
     type="text/css"
     id="style1281">
	.st0{fill:#FF66AA;}
	.st1{opacity:0.15;}
	.st2{clip-path:url(#SVGID_2_);}
	.st3{fill:#F1F1F2;}
	.st4{fill:#231F20;}
	.st5{fill:#808184;}
	.st6{fill:#929497;}
	.st7{fill:#636466;}
	.st8{fill:#59595C;}
	.st9{fill:#A7A8AB;}
	.st10{fill:#6D6E70;}
	.st11{fill:#221F1F;}
	.st12{fill:#404041;}
	.st13{fill:#58595B;}
	.st14{fill:#BBBDBF;}
	.st15{fill:#FFFFFF;}
	.st16{fill:#A6A8AB;}
	.st17{fill:#E6E7E8;}
	.st18{fill:#D0D2D3;}
</style>
</svg>
